<svg xmlns="http://www.w3.org/2000/svg" version="1.1" xmlns:xlink="http://www.w3.org/1999/xlink" viewBox="0 0 32 32">
 <defs>
  <linearGradient id="c" y2="133" xlink:href="#a" gradientUnits="userSpaceOnUse" x2="122" y1="129" x1="119"/>
  <linearGradient id="a">
   <stop stop-color="#ffd43b" offset="0"/>
   <stop stop-color="#ffe873" offset="1"/>
  </linearGradient>
  <linearGradient id="e" y2="265" xlink:href="#a" gradientUnits="userSpaceOnUse" x2="-99.3" gradientTransform="matrix(.0528 0 0 -.0533 121 138)" y1="226" x1="-76.7"/>
  <linearGradient id="d" y2="62.2" gradientUnits="userSpaceOnUse" x2="65" gradientTransform="matrix(.0528 0 0 -.0533 121 138)" y1="192" x1="151">
   <stop stop-color="#ffd43b" offset="0"/>
   <stop stop-color="#ffe873" offset=".785"/>
   <stop stop-color="#ffd43b" offset="1"/>
  </linearGradient>
  <radialGradient id="b" gradientUnits="userSpaceOnUse" cy="128" cx="120" gradientTransform="matrix(1 0 0 1.9 -226 -96)" r="5">
   <stop stop-color="#b8b8b8" stop-opacity=".498" offset="0"/>
   <stop stop-color="#7f7f7f" stop-opacity="0" offset="1"/>
  </radialGradient>
  <linearGradient id="f" y2="138" gradientUnits="userSpaceOnUse" x2="122" gradientTransform="translate(-226 18.5)" y1="120" x1="113">
   <stop stop-color="#5a9fd4" offset="0"/>
   <stop stop-color="#306998" offset="1"/>
  </linearGradient>
 </defs>
 <g transform="translate(121 -131)">
  <path stroke-linejoin="round" d="m-106 134a8.5 8.5 0 0 0 -8.5 8.5v9a8.5 8.5 0 0 0 8.5 8.5 8.5 8.5 0 0 0 8.5 -8.5v-9a8.5 8.5 0 0 0 -8.5 -8.5z" stroke="#fff" stroke-width="2" fill="#fff"/>
  <path d="m-106 134a8.5 8.5 0 0 0 -8.5 8.5v9a8.5 8.5 0 0 0 8.5 8.5 8.5 8.5 0 0 0 8.5 -8.5h-3.5a5 5 0 0 1 -5 5 5 5 0 0 1 -5 -5v-9a5 5 0 0 1 5 -5 5 5 0 0 1 5 5h3.5a8.5 8.5 0 0 0 -8.5 -8.5z" fill="url(#f)"/>
  <path d="m-106 137a5 5 0 0 0 -5 5v9a5 5 0 0 0 5 5 5 5 0 0 0 5 -5v-9a5 5 0 0 0 -5 -5z" fill="url(#b)"/>
  <path style="color-rendering:auto;text-decoration-color:#000000;color:#000000;font-variant-numeric:normal;shape-rendering:auto;font-variant-ligatures:normal;text-decoration-line:none;font-variant-position:normal;mix-blend-mode:normal;solid-color:#000000;font-feature-settings:normal;shape-padding:0;font-variant-alternates:normal;text-indent:0;dominant-baseline:auto;font-variant-caps:normal;image-rendering:auto;white-space:normal;text-decoration-style:solid;text-orientation:mixed;isolation:auto;text-transform:none" d="m-107 137c-0.142-0.004-0.289-0.001-0.44 0.008-1.22 0.0725-2.17 0.614-2.78 1.42-0.617 0.809-0.904 1.88-0.824 3.02 0.159 2.26 1.41 4.41 1.41 4.41l0.0284 0.0496c-0.689 0.547-1.44 1.18-2.24 1.98-1.6 1.59-1.92 3.81-1.03 5.63 0.894 1.82 3.01 3.22 6.24 3.23 2.01 0.002 3.61-0.242 4.89-0.794l0.0827-0.0357c0.291 0.193 0.609 0.344 0.99 0.405 0.943 0.151 2.06-0.47 2.89-1.1 0.415-0.314 0.758-0.632 0.97-0.869 0.106-0.119 0.178-0.212 0.217-0.295 0.019-0.0413 0.0461-0.089 0.0062-0.158-0.02-0.0345-0.0604-0.0557-0.0904-0.0605-0.03-0.005-0.0536-0.00083-0.077 0.005-0.146 0.0356-0.329 0.127-0.558 0.237-0.229 0.109-0.499 0.236-0.792 0.341-0.492 0.176-1.04 0.236-1.58 0.109 1.46-1.51 2.28-3.85 2.86-7.23l0.0016-0.009v-0.263h2.78v-1.16c0-0.431-0.191-0.766-0.468-1.01-0.277-0.243-0.638-0.399-0.998-0.503-0.536-0.156-1.02-0.222-1.49-0.216h-0.000516c-0.464 0.006-0.906 0.0843-1.35 0.216-0.378 0.111-0.74 0.281-1.01 0.528-0.272 0.247-0.454 0.577-0.454 0.984v1.47c-0.355 2.73-1.1 4.29-2.06 5.22-0.566-0.862-1.09-1.86-1.52-2.73-0.249-0.496-0.799-0.972-1.33-1.54-0.533-0.565-1.05-1.21-1.24-2.01l-0.0181-0.0734c0.041-0.0384 0.0871-0.0675 0.128-0.106 1.38-1.33 2.46-3 2.18-5.48-0.115-1.02-0.402-1.91-0.935-2.56-0.515-0.628-1.27-1.01-2.28-1.07v-0.0103zm-0.369 1.95c0.374-0.014 0.798 0.1 1.11 0.444 0.355 0.393 0.578 1.1 0.383 2.31-0.18 1.12-0.829 1.85-1.77 2.63-0.0207-0.0296-1.07-1.53-1.16-3-0.0491-0.753 0.0752-1.32 0.307-1.71s0.568-0.604 0.973-0.659c0.0508-0.007 0.103-0.0114 0.157-0.0134zm12 6.31c0.234 0 0.423 0.191 0.423 0.432 0 0.239-0.188 0.429-0.423 0.429-0.233 0-0.423-0.19-0.423-0.429 0-0.24 0.19-0.432 0.423-0.432zm-13 2.91c1.12 1.93 2.83 2.85 3.84 4.11 0.351 0.431 0.648 0.876 0.924 1.31-1 0.349-2.12 0.426-3.25 0.534-1.53 0.147-2.8-0.397-3.44-1.26-0.636-0.858-0.662-2.03 0.319-3.21 0.425-0.513 0.992-0.993 1.6-1.48z" fill="#a48000"/>
  <g transform="matrix(1.11 0 0 1.11 -239 4.27)">
   <path d="m120 128c-0.636 0.585-1.33 1.11-1.96 1.61 0.996 1.72 2.53 2.55 3.47 3.7 1.29 1.59 1.78 3.37 3.38 3.62 1.6 0.256 3.99-2.17 3.54-2.06-0.448 0.109-1.78 1.08-2.98 0.572-1.2-0.513-2.31-2.64-3.11-4.24-0.421-0.839-1.97-1.73-2.33-3.22z" fill="url(#c)"/>
   <path d="m119 119c-0.125-0.004-0.255-0.001-0.389 0.007-2.15 0.128-3.31 1.9-3.17 3.92 0.141 2.02 1.26 3.94 1.26 3.94l1.66-1.26s-0.984-1.39-1.07-2.78c-0.0904-1.39 0.453-2.13 1.23-2.24 0.781-0.107 1.95 0.362 1.59 2.58-0.357 2.22-2.59 2.81-5.42 5.63-2.83 2.83-1.15 7.84 4.64 7.84 1.81 0.002 3.24-0.218 4.38-0.71-0.329-0.241-0.609-0.561-0.87-0.925-0.231-0.323-0.453-0.682-0.689-1.05-0.922 0.324-1.94 0.392-2.97 0.489-2.82 0.27-4.71-1.99-2.89-4.18 1.81-2.19 6.11-3.64 5.61-8.07-0.205-1.82-1.03-3.15-2.9-3.2z" fill="url(#e)"/>
   <path d="m128 126c-0.41 0.005-0.8 0.0746-1.2 0.192-0.665 0.196-1.26 0.597-1.26 1.28v1.34c-0.323 2.48-1 3.93-1.89 4.78 0.52 0.777 1.09 1.41 1.65 1.65 0.0519 0.0222 0.106 0.0382 0.161 0.0543 1.33-1.34 2.07-3.45 2.6-6.55v-0.32h2.51v-0.959c0-0.726-0.624-1.1-1.26-1.28-0.476-0.138-0.906-0.197-1.32-0.192zm1.47 0.831c0.261 0 0.472 0.215 0.472 0.481 0 0.264-0.212 0.478-0.472 0.478s-0.472-0.214-0.472-0.478c0-0.265 0.212-0.481 0.472-0.481z" fill="url(#d)"/>
  </g>
 </g>
</svg>
